<svg width="259" height="64" viewBox="0 0 259 64" fill="none" xmlns="http://www.w3.org/2000/svg">
<path d="M55.4867 19.3351H63.4481V28.6233H55.4867V47.4651H43.5447V35.7885C35.0526 37.5135 26.6269 38.4423 14.3532 38.4423H0.420866V29.3531H5.72842V10.5113H1.74775V1.55481H38.3699V10.5113H34.3892V28.358C37.6401 27.9599 40.6919 27.4955 43.5447 26.9647V0.891367H55.4867V19.3351ZM6.98896 63.2551V43.5508H19.1963V54.0332H56.8136V63.2551H6.98896ZM17.6704 29.3531C19.329 29.2868 20.9213 29.2868 22.4472 29.2204V10.5113H17.6704V29.3531ZM129.792 23.9792V33.2674H121.831V63.2551H109.889V52.839C101.397 55.2938 92.9713 56.687 80.6976 56.687H68.7556V2.8817H102.724V11.8382H80.6976V47.5978C92.8386 47.5978 101.463 46.4036 109.889 44.0152V0.891367H121.831V23.9792H129.792ZM196.137 23.9792V33.2674H188.176V63.2551H176.234V0.891367H188.176V23.9792H196.137ZM135.1 56.687V2.8817H169.798V56.687H135.1ZM147.042 47.5978H157.989V11.9709H147.042V47.5978ZM246.89 0.891367H258.501V36.85H246.89V0.891367ZM197.464 29.7512C205.226 28.1589 211.064 25.7042 214.315 22.586L201.444 23.3821V14.7573H217.102V10.5113H202.771V1.55481H228.712V13.4968H232.494V1.22309H243.772V36.85H232.494V22.785H226.987C223.471 29.6185 214.647 35.2578 201.245 38.6413L197.464 29.7512ZM204.695 53.7679C221.082 53.1708 225.859 49.7872 225.859 44.0152V38.9731H237.801V45.0767C237.801 46.669 237.602 48.1949 237.204 49.5882C244.9 50.1189 252.53 51.1804 258.501 52.5737L255.316 63.2551C248.483 60.8667 238.929 58.5447 231.233 57.2841C225.726 60.9994 216.903 62.7907 205.956 63.2551L204.695 53.7679Z" fill="#3692FF"/>
</svg>
